<svg id="visual" viewBox="0 0 960 540" width="960" height="540" xmlns="http://www.w3.org/2000/svg" xmlns:xlink="http://www.w3.org/1999/xlink" version="1.1"><rect x="0" y="0" width="960" height="540" fill="#ffffff"></rect><defs><linearGradient id="grad1_0" x1="43.8%" y1="0%" x2="100%" y2="100%"><stop offset="14.444444444444446%" stop-color="#ffffff" stop-opacity="1"></stop><stop offset="85.55555555555554%" stop-color="#ffffff" stop-opacity="1"></stop></linearGradient></defs><defs><linearGradient id="grad2_0" x1="0%" y1="0%" x2="56.3%" y2="100%"><stop offset="14.444444444444446%" stop-color="#ffffff" stop-opacity="1"></stop><stop offset="85.55555555555554%" stop-color="#ffffff" stop-opacity="1"></stop></linearGradient></defs><g transform="translate(960, 0)"><path d="M0 297C-37.4 289.9 -74.9 282.7 -111.7 269.8C-148.6 256.8 -185 238 -210 210C-235.1 182 -248.8 144.8 -261.5 108.3C-274.1 71.8 -285.5 35.9 -297 0L0 0Z" fill="#FBAE3C"></path></g><g transform="translate(0, 540)"><path d="M0 -297C38.2 -291.4 76.4 -285.8 112.9 -272.5C149.4 -259.3 184.3 -238.3 210 -210C235.7 -181.7 252.2 -146.1 265.2 -109.8C278.1 -73.6 287.6 -36.8 297 0L0 0Z" fill="#FBAE3C"></path></g></svg>